<?xml version="1.0" standalone="no"?>
<!DOCTYPE svg PUBLIC "-//W3C//DTD SVG 20010904//EN"
 "http://www.w3.org/TR/2001/REC-SVG-20010904/DTD/svg10.dtd">
<svg version="1.0" xmlns="http://www.w3.org/2000/svg"
 width="225.000000pt" height="225.000000pt" viewBox="0 0 225.000000 225.000000"
 preserveAspectRatio="xMidYMid meet">

<g transform="translate(0.000000,225.000000) scale(0.100000,-0.100000)"
fill="#000000" stroke="none">
<path d="M1015 1460 c-121 -242 -222 -440 -225 -440 -3 0 -30 48 -59 108 l-53
107 -223 -445 -223 -445 891 -3 c490 -1 892 0 894 2 5 5 -770 1556 -777 1556
-3 0 -104 -198 -225 -440z m336 -23 l107 -212 -54 -108 -54 -107 -55 0 -55 0
-56 -112 -57 -113 -81 163 -81 162 135 270 c74 148 137 270 140 270 3 0 53
-96 111 -213z"/>
</g>
</svg>
